<svg height="122" viewBox="148 440 706 122" width="706" xmlns="http://www.w3.org/2000/svg"><path d="m202.9 547.3c-6.5 0-12.5-1.1-18-3.2s-10.3-5.2-14.3-9.1c-4.1-3.9-7.2-8.5-9.5-13.8-2.3-5.2-3.4-11-3.4-17.4s1.1-12.2 3.4-17.4 5.4-9.8 9.5-13.8c4.1-3.9 8.9-7 14.4-9.1s11.5-3.2 18-3.2c6.9 0 13.3 1.2 19 3.6s10.6 5.9 14.5 10.6l-10.2 9.5c-3.1-3.3-6.6-5.8-10.4-7.4-3.8-1.7-7.9-2.5-12.2-2.5-4.4 0-8.5.7-12.1 2.2-3.7 1.4-6.9 3.5-9.5 6.2-2.7 2.7-4.8 5.8-6.3 9.4s-2.3 7.6-2.3 12 .8 8.3 2.3 12c1.5 3.6 3.6 6.8 6.3 9.4 2.7 2.7 5.9 4.7 9.5 6.2 3.7 1.5 7.7 2.2 12.1 2.2s8.4-.8 12.2-2.5 7.3-4.2 10.4-7.6l10.2 9.5c-3.9 4.7-8.8 8.2-14.5 10.6-5.8 2.4-12.1 3.6-19.1 3.6z"/><path d="m246.7 546.1v-89.7h15v89.7z"/><path d="m285.6 470.9c-2.8 0-5.1-.9-7-2.7-1.8-1.8-2.7-3.9-2.7-6.5 0-2.4.9-4.5 2.7-6.3s4.1-2.7 7-2.7c2.8 0 5.1.8 7 2.5 1.8 1.7 2.7 3.8 2.7 6.3 0 2.6-.9 4.8-2.7 6.6-1.7 1.9-4 2.8-7 2.8zm-7.4 75.2v-64.5h15v64.5z"/><path d="m339.1 546.9c-6.8 0-12.8-1.4-18.1-4.3s-9.4-6.8-12.4-11.7c-3-5-4.5-10.7-4.5-17.1 0-6.5 1.5-12.2 4.5-17.2 3-4.9 7.1-8.8 12.4-11.7s11.3-4.3 18.1-4.3c6.2 0 11.7 1.3 16.6 3.9 4.8 2.6 8.5 6.3 10.9 11.2l-11.5 6.8c-1.9-3-4.3-5.2-7.1-6.7s-5.8-2.2-9-2.2c-3.7 0-7.1.8-10 2.5-3 1.7-5.3 4-7 7s-2.5 6.6-2.5 10.7.8 7.7 2.5 10.8 4 5.4 7 7.1 6.3 2.5 10 2.5c3.2 0 6.2-.7 9-2.2s5.1-3.8 7.1-6.8l11.5 6.8c-2.4 4.8-6 8.6-10.9 11.2-4.9 2.4-10.4 3.7-16.6 3.7z"/><path d="m375.8 546.1v-89.7h15v89.7zm12.2-14.4.4-19 33.7-31.2h18.1l-28.6 28.6-8.1 6.8zm36.5 14.4-23.8-29.1 9.5-12.1 32.5 41.2z"/><path d="m469.5 546.1v-84.6h37.1c9 0 17 1.8 24 5.3s12.4 8.4 16.3 14.8 5.8 13.8 5.8 22.2c0 8.5-1.9 15.9-5.8 22.2-3.9 6.4-9.3 11.3-16.3 14.8s-15 5.3-24 5.3zm15.7-13.3h20.4c6.4 0 11.9-1.2 16.5-3.6s8.3-5.8 10.9-10.2 3.9-9.5 3.9-15.4-1.3-11-3.9-15.2c-2.6-4.3-6.2-7.6-10.9-10-4.6-2.4-10.1-3.6-16.5-3.6h-20.4z"/><path d="m564.5 546.1v-64.5h14.4v17.8l-1.7-5.2c1.9-4.4 4.9-7.7 9.1-10s9.3-3.4 15.4-3.4v14.2c-.6-.1-1.1-.1-1.7-.2-.6 0-1.1-.1-1.6-.1-5.8 0-10.4 1.7-13.8 5s-5.1 8.3-5.1 15.1v31.2h-15z"/><path d="m618.7 470.9c-2.8 0-5.1-.9-7-2.7-1.8-1.8-2.7-3.9-2.7-6.5 0-2.4.9-4.5 2.7-6.3s4.1-2.7 7-2.7c2.8 0 5.1.8 7 2.5 1.8 1.7 2.7 3.8 2.7 6.3 0 2.6-.9 4.8-2.7 6.6-1.7 1.9-4.1 2.8-7 2.8zm-7.5 75.2v-64.5h15v64.5z"/><path d="m659.7 546.1-27.7-64.6h15.6l23.9 56.9h-7.7l24.7-56.9h14.5l-27.7 64.5h-15.6z"/><path d="m737.4 546.9c-7.2 0-13.4-1.4-18.8-4.3s-9.5-6.8-12.4-11.7c-2.9-5-4.4-10.7-4.4-17.1s1.4-12.1 4.3-17.1 6.8-8.9 11.8-11.7c5-2.9 10.8-4.3 17.2-4.3 6.3 0 11.9 1.4 16.8 4.2s8.8 6.7 11.6 11.7 4.2 10.9 4.2 17.8c0 .6 0 1.3-.1 2.1 0 .8-.1 1.6-.2 2.2h-53.8v-10h45.8l-6 3.1c.1-3.6-.7-6.9-2.2-9.7-1.6-2.9-3.7-5.1-6.5-6.6-2.7-1.6-6-2.4-9.7-2.4-3.6 0-6.9.8-9.7 2.4-2.9 1.6-5.1 3.8-6.6 6.7s-2.3 6.2-2.3 10v2.4c0 3.9.9 7.3 2.6 10.3s4.2 5.3 7.4 7 7 2.5 11.2 2.5c3.6 0 6.9-.6 9.8-1.8s5.5-3 7.7-5.3l8.2 9.4c-3 3.4-6.7 6-11.1 7.7-4.1 1.6-9.1 2.5-14.8 2.5z"/><path d="m815.4 480.7c5.2 0 9.9 1 13.8 3 4 2 7.2 5.1 9.5 9.3 2.4 4.2 3.6 9.5 3.6 16.1v37h-15.1v-35.1c0-5.7-1.3-10-4-12.8s-6.4-4.2-11.4-4.2c-3.5 0-6.7.7-9.4 2.2s-4.9 3.6-6.3 6.5c-1.5 2.9-2.2 6.5-2.2 10.8v32.6h-15v-64.5h14.4v17.4l-2.5-5.4c2.2-4.1 5.4-7.3 9.7-9.5 4.3-2.3 9.3-3.4 14.9-3.4z"/><path d="m437 501.5h25.3v16.1h-25.3z" fill="#f3041c"/></svg>