<svg enable-background="new 0 0 1000 1000" viewBox="0 0 1000 1000" xmlns="http://www.w3.org/2000/svg" xmlns:xlink="http://www.w3.org/1999/xlink"><linearGradient id="a"><stop offset="0" stop-color="#055de1"/><stop offset="1" stop-color="#043ab2"/></linearGradient><linearGradient id="b" gradientUnits="userSpaceOnUse" x1="446.1165" x2="554.9276" xlink:href="#a" y1="436.5775" y2="593.5165"/><linearGradient id="c" gradientUnits="userSpaceOnUse" x1="481.643" x2="590.454" xlink:href="#a" y1="411.9457" y2="568.8848"/><linearGradient id="d" gradientUnits="userSpaceOnUse" x1="429.4278" x2="538.2388" xlink:href="#a" y1="448.1483" y2="605.0873"/><linearGradient id="e" gradientUnits="userSpaceOnUse" x1="500.8571" x2="501.3222" xlink:href="#a" y1="340.5005" y2="436.7564"/><linearGradient id="f" gradientUnits="userSpaceOnUse" x1="500.9773" x2="501.4424" xlink:href="#a" y1="340.4999" y2="436.7558"/><linearGradient id="g"><stop offset=".1793" stop-color="#f43e4c"/><stop offset="1" stop-color="#cb1730"/></linearGradient><linearGradient id="h" gradientUnits="userSpaceOnUse" x1="491.8453" x2="510.678" xlink:href="#g" y1="285.1558" y2="657.6243"/><linearGradient id="i" gradientUnits="userSpaceOnUse" x1="486.4378" x2="505.2705" xlink:href="#g" y1="285.4292" y2="657.8978"/><linearGradient id="j" gradientUnits="userSpaceOnUse" x1="163.4681" x2="354.4397" xlink:href="#a" y1="497.6748" y2="497.6748"/><linearGradient id="k" gradientUnits="userSpaceOnUse" x1="645.5616" x2="836.5319" y1="497.6748" y2="497.6748"><stop offset="0" stop-color="#043ab2"/><stop offset="1" stop-color="#055de1"/></linearGradient><path d="m497.4 417.5v47.4c-3.3 0-5.9 2.7-5.9 5.9v20.2c0 3.3 2.7 5.9 5.9 5.9v14.8s-45.2 2-59.5 6.2v-40.9c0-32.9 26.7-59.5 59.5-59.5z" fill="url(#b)"/><path d="m502.6 417.5v47.4c3.3 0 5.9 2.7 5.9 5.9v20.2c0 3.3-2.7 5.9-5.9 5.9v14.8s45.2 2 59.5 6.2v-40.9c0-32.9-26.7-59.5-59.5-59.5z" fill="url(#c)"/><path d="m500 620.4c34.3 0 62.1-27.8 62.1-62.1v-36.3c-26.4-5.5-59.5-5.9-59.5-5.9v12.9h-2.6-2.6v-12.9s-33.1.5-59.5 5.9v36.3c0 34.3 27.8 62.1 62.1 62.1z" fill="url(#d)"/><path d="m573.5 433.9c-1.8 0-3.5-.8-4.7-2.3-.3-.3-26.5-32.8-68.8-32.8-42.1 0-65.9 32.2-66.1 32.6-1.9 2.7-5.6 3.3-8.3 1.3-2.7-1.9-3.3-5.6-1.4-8.3 1.1-1.5 27.5-37.5 75.8-37.5 48.1 0 76.9 35.8 78.1 37.3 2 2.6 1.6 6.3-1 8.3-1 1-2.3 1.4-3.6 1.4z" fill="url(#e)"/><path d="m405.1 409c-1.4 0-2.7-.5-3.9-1.4-2.5-2.1-2.8-5.9-.6-8.4 1.4-1.7 36-41.1 99-41.1 62.8 0 100.5 39.2 102.1 40.9 2.3 2.4 2.1 6.1-.2 8.4-2.4 2.3-6.1 2.1-8.4-.2-.3-.4-35.9-37.1-93.5-37.1s-89.7 36.6-90 36.9c-1.1 1.3-2.8 2-4.5 2z" fill="url(#f)"/><path d="m673.7 456.1h-5.4c-4.2 0-8-2.7-9.3-6.7-.6-2-1.3-3.9-2-5.9-23.2-64.3-84.9-110.3-157.1-110.3s-133.8 46.1-157.1 110.3c-.7 1.9-1.4 3.9-2 5.9-1.3 4-5 6.7-9.3 6.7h-5.4c-6.5 0-11.2-6.3-9.3-12.6 24.2-78.1 97.1-134.9 183-134.9s158.8 56.9 183 134.9c2.1 6.2-2.5 12.6-9.1 12.6z" fill="url(#h)"/><path d="m673.7 543.9h-5.4c-4.2 0-8 2.7-9.3 6.7-.6 2-1.3 3.9-2 5.9-23.2 64.3-84.9 110.3-157.1 110.3s-133.8-46.1-157.1-110.3c-.7-1.9-1.4-3.9-2-5.9-1.3-4-5-6.7-9.3-6.7h-5.4c-6.5 0-11.2 6.3-9.3 12.6 24.2 78.1 97.1 134.9 183 134.9s158.8-56.9 183-134.9c2.1-6.2-2.5-12.6-9.1-12.6z" fill="url(#i)"/><path d="m343.5 508.6h-169.1c-6 0-10.9-4.9-10.9-10.9s4.9-10.9 10.9-10.9h169.1c6 0 10.9 4.9 10.9 10.9s-4.9 10.9-10.9 10.9z" fill="url(#j)"/><path d="m278.2 453h-38.5c-6 0-10.9-4.9-10.9-10.9s4.9-10.9 10.9-10.9h38.5c6 0 10.9 4.9 10.9 10.9s-4.9 10.9-10.9 10.9z"/><path d="m278.2 564.2h-38.5c-6 0-10.9-4.9-10.9-10.9s4.9-10.9 10.9-10.9h38.5c6 0 10.9 4.9 10.9 10.9s-4.9 10.9-10.9 10.9z"/><path d="m760.3 453h-38.4c-6 0-10.9-4.9-10.9-10.9s4.9-10.9 10.9-10.9h38.4c6 0 10.9 4.9 10.9 10.9s-4.9 10.9-10.9 10.9z"/><path d="m760.3 564.2h-38.4c-6 0-10.9-4.9-10.9-10.9s4.9-10.9 10.9-10.9h38.4c6 0 10.9 4.9 10.9 10.9s-4.9 10.9-10.9 10.9z"/><path d="m825.6 508.6h-169.1c-6 0-10.9-4.9-10.9-10.9s4.9-10.9 10.9-10.9h169.1c6 0 10.9 4.9 10.9 10.9s-4.9 10.9-10.9 10.9z" fill="url(#k)"/></svg>