<?xml version="1.0" encoding="utf-8"?>
<!-- Generator: Adobe Illustrator 23.0.5, SVG Export Plug-In . SVG Version: 6.00 Build 0)  -->
<svg version="1.1" id="Layer_1" xmlns="http://www.w3.org/2000/svg" xmlns:xlink="http://www.w3.org/1999/xlink" x="0px" y="0px"
	 viewBox="0 0 1000 1000" style="enable-background:new 0 0 1000 1000;" xml:space="preserve">
<style type="text/css">
	.st0{fill:#F3041C;}
	.st1{fill:url(#SVGID_1_);}
	.st2{fill:url(#SVGID_2_);}
	.st3{fill:url(#SVGID_3_);}
	.st4{fill:url(#SVGID_4_);}
	.st5{fill:url(#SVGID_5_);}
	.st6{fill:url(#SVGID_6_);}
	.st7{fill:url(#SVGID_7_);}
	.st8{fill:url(#SVGID_8_);}
	.st9{fill:url(#SVGID_9_);}
	.st10{fill:url(#SVGID_10_);}
	.st11{fill:url(#SVGID_11_);}
	.st12{fill:url(#SVGID_12_);}
	.st13{fill:url(#SVGID_13_);}
	.st14{fill:url(#SVGID_14_);}
	.st15{fill:url(#SVGID_15_);}
	.st16{fill:url(#SVGID_16_);}
	.st17{fill:url(#SVGID_17_);}
	.st18{fill:url(#SVGID_18_);}
</style>
<g>
	<g>
		<path d="M202.9,547.3c-6.5,0-12.5-1.1-18-3.2c-5.5-2.1-10.3-5.2-14.3-9.1c-4.1-3.9-7.2-8.5-9.5-13.8c-2.3-5.2-3.4-11-3.4-17.4
			c0-6.4,1.1-12.2,3.4-17.4c2.3-5.2,5.4-9.8,9.5-13.8c4.1-3.9,8.9-7,14.4-9.1c5.5-2.1,11.5-3.2,18-3.2c6.9,0,13.3,1.2,19,3.6
			c5.7,2.4,10.6,5.9,14.5,10.6l-10.2,9.5c-3.1-3.3-6.6-5.8-10.4-7.4c-3.8-1.7-7.9-2.5-12.2-2.5c-4.4,0-8.5,0.7-12.1,2.2
			c-3.7,1.4-6.9,3.5-9.5,6.2c-2.7,2.7-4.8,5.8-6.3,9.4c-1.5,3.6-2.3,7.6-2.3,12c0,4.4,0.8,8.3,2.3,12c1.5,3.6,3.6,6.8,6.3,9.4
			c2.7,2.7,5.9,4.7,9.5,6.2c3.7,1.5,7.7,2.2,12.1,2.2c4.4,0,8.4-0.8,12.2-2.5c3.8-1.7,7.3-4.2,10.4-7.6l10.2,9.5
			c-3.9,4.7-8.8,8.2-14.5,10.6C216.2,546.1,209.9,547.3,202.9,547.3z"/>
		<path d="M246.7,546.1v-89.7h15v89.7H246.7z"/>
		<path d="M285.6,470.9c-2.8,0-5.1-0.9-7-2.7c-1.8-1.8-2.7-3.9-2.7-6.5c0-2.4,0.9-4.5,2.7-6.3c1.8-1.8,4.1-2.7,7-2.7
			c2.8,0,5.1,0.8,7,2.5c1.8,1.7,2.7,3.8,2.7,6.3c0,2.6-0.9,4.8-2.7,6.6C290.9,470,288.6,470.9,285.6,470.9z M278.2,546.1v-64.5h15
			v64.5H278.2z"/>
		<path d="M339.1,546.9c-6.8,0-12.8-1.4-18.1-4.3c-5.3-2.9-9.4-6.8-12.4-11.7c-3-5-4.5-10.7-4.5-17.1c0-6.5,1.5-12.2,4.5-17.2
			c3-4.9,7.1-8.8,12.4-11.7c5.3-2.9,11.3-4.3,18.1-4.3c6.2,0,11.7,1.3,16.6,3.9c4.8,2.6,8.5,6.3,10.9,11.2l-11.5,6.8
			c-1.9-3-4.3-5.2-7.1-6.7c-2.8-1.5-5.8-2.2-9-2.2c-3.7,0-7.1,0.8-10,2.5c-3,1.7-5.3,4-7,7c-1.7,3-2.5,6.6-2.5,10.7
			c0,4.1,0.8,7.7,2.5,10.8c1.7,3.1,4,5.4,7,7.1c3,1.7,6.3,2.5,10,2.5c3.2,0,6.2-0.7,9-2.2c2.8-1.5,5.1-3.8,7.1-6.8l11.5,6.8
			c-2.4,4.8-6,8.6-10.9,11.2C350.8,545.6,345.3,546.9,339.1,546.9z"/>
		<path d="M375.8,546.1v-89.7h15v89.7H375.8z M388,531.7l0.4-19l33.7-31.2h18.1l-28.6,28.6l-8.1,6.8L388,531.7z M424.5,546.1
			l-23.8-29.1l9.5-12.1l32.5,41.2H424.5z"/>
	</g>
	<g>
		<path d="M469.5,546.1v-84.6h37.1c9,0,17,1.8,24,5.3c7,3.5,12.4,8.4,16.3,14.8c3.9,6.4,5.8,13.8,5.8,22.2c0,8.5-1.9,15.9-5.8,22.2
			c-3.9,6.4-9.3,11.3-16.3,14.8c-7,3.5-15,5.3-24,5.3H469.5z M485.2,532.8h20.4c6.4,0,11.9-1.2,16.5-3.6c4.6-2.4,8.3-5.8,10.9-10.2
			c2.6-4.4,3.9-9.5,3.9-15.4c0-5.9-1.3-11-3.9-15.2c-2.6-4.3-6.2-7.6-10.9-10c-4.6-2.4-10.1-3.6-16.5-3.6h-20.4V532.8z"/>
		<path d="M564.5,546.1v-64.5h14.4v17.8l-1.7-5.2c1.9-4.4,4.9-7.7,9.1-10c4.2-2.3,9.3-3.4,15.4-3.4V495c-0.6-0.1-1.1-0.1-1.7-0.2
			c-0.6,0-1.1-0.1-1.6-0.1c-5.8,0-10.4,1.7-13.8,5c-3.4,3.3-5.1,8.3-5.1,15.1v31.2H564.5z"/>
		<path d="M618.7,470.9c-2.8,0-5.1-0.9-7-2.7c-1.8-1.8-2.7-3.9-2.7-6.5c0-2.4,0.9-4.5,2.7-6.3c1.8-1.8,4.1-2.7,7-2.7
			c2.8,0,5.1,0.8,7,2.5c1.8,1.7,2.7,3.8,2.7,6.3c0,2.6-0.9,4.8-2.7,6.6C624,470,621.6,470.9,618.7,470.9z M611.2,546.1v-64.5h15
			v64.5H611.2z"/>
		<path d="M659.7,546.1L632,481.5h15.6l23.9,56.9h-7.7l24.7-56.9H703l-27.7,64.5H659.7z"/>
		<path d="M737.4,546.9c-7.2,0-13.4-1.4-18.8-4.3c-5.4-2.9-9.5-6.8-12.4-11.7c-2.9-5-4.4-10.7-4.4-17.1c0-6.4,1.4-12.1,4.3-17.1
			c2.9-5,6.8-8.9,11.8-11.7c5-2.9,10.8-4.3,17.2-4.3c6.3,0,11.9,1.4,16.8,4.2c4.9,2.8,8.8,6.7,11.6,11.7c2.8,5,4.2,10.9,4.2,17.8
			c0,0.6,0,1.3-0.1,2.1c0,0.8-0.1,1.6-0.2,2.2h-53.8v-10h45.8l-6,3.1c0.1-3.6-0.7-6.9-2.2-9.7c-1.6-2.9-3.7-5.1-6.5-6.6
			c-2.7-1.6-6-2.4-9.7-2.4c-3.6,0-6.9,0.8-9.7,2.4c-2.9,1.6-5.1,3.8-6.6,6.7c-1.5,2.9-2.3,6.2-2.3,10v2.4c0,3.9,0.9,7.3,2.6,10.3
			c1.7,3,4.2,5.3,7.4,7c3.2,1.7,7,2.5,11.2,2.5c3.6,0,6.9-0.6,9.8-1.8s5.5-3,7.7-5.3l8.2,9.4c-3,3.4-6.7,6-11.1,7.7
			C748.1,546,743.1,546.9,737.4,546.9z"/>
		<path d="M815.4,480.7c5.2,0,9.9,1,13.8,3c4,2,7.2,5.1,9.5,9.3c2.4,4.2,3.6,9.5,3.6,16.1v37h-15.1V511c0-5.7-1.3-10-4-12.8
			c-2.7-2.8-6.4-4.2-11.4-4.2c-3.5,0-6.7,0.7-9.4,2.2c-2.7,1.5-4.9,3.6-6.3,6.5c-1.5,2.9-2.2,6.5-2.2,10.8v32.6h-15v-64.5h14.4V499
			l-2.5-5.4c2.2-4.1,5.4-7.3,9.7-9.5C804.8,481.8,809.8,480.7,815.4,480.7z"/>
	</g>
	<rect x="437" y="501.5" class="st0" width="25.3" height="16.1"/>
</g>
</svg>
